<mxfile host="0c5bac26-14b6-4de0-a5dd-f65227ad0208" modified="2020-09-07T19:47:01.343Z" agent="5.0 (X11; Linux x86_64) AppleWebKit/537.36 (KHTML, like Gecko) Code/1.48.2 Chrome/78.0.3904.130 Electron/7.3.2 Safari/537.36" etag="SGmUYUUlOCr0TFhLeQOc" version="13.1.3" pages="2">
    <diagram id="6hGFLwfOUW9BJ-s0fimq" name="Page-1">
        <mxGraphModel dx="1208" dy="807" grid="1" gridSize="10" guides="1" tooltips="1" connect="1" arrows="1" fold="1" page="1" pageScale="1" pageWidth="827" pageHeight="1169" math="0" shadow="0">
            <root>
                <mxCell id="0"/>
                <mxCell id="1" parent="0"/>
                <mxCell id="2" value="Color library NPM" style="rounded=0;whiteSpace=wrap;html=1;" parent="1" vertex="1">
                    <mxGeometry x="680" y="180" width="120" height="60" as="geometry"/>
                </mxCell>
                <mxCell id="24" style="edgeStyle=orthogonalEdgeStyle;rounded=0;orthogonalLoop=1;jettySize=auto;html=1;entryX=0.25;entryY=0;entryDx=0;entryDy=0;" parent="1" source="3" target="11" edge="1">
                    <mxGeometry relative="1" as="geometry">
                        <Array as="points">
                            <mxPoint x="70" y="230"/>
                            <mxPoint x="70" y="230"/>
                        </Array>
                    </mxGeometry>
                </mxCell>
                <mxCell id="30" style="edgeStyle=orthogonalEdgeStyle;rounded=0;orthogonalLoop=1;jettySize=auto;html=1;" parent="1" source="3" edge="1">
                    <mxGeometry relative="1" as="geometry">
                        <mxPoint x="320" y="90" as="targetPoint"/>
                    </mxGeometry>
                </mxCell>
                <mxCell id="33" style="edgeStyle=orthogonalEdgeStyle;rounded=0;orthogonalLoop=1;jettySize=auto;html=1;entryX=0;entryY=0.5;entryDx=0;entryDy=0;" parent="1" source="3" target="32" edge="1">
                    <mxGeometry relative="1" as="geometry"/>
                </mxCell>
                <mxCell id="3" value="&lt;font style=&quot;font-size: 36px&quot;&gt;object constror&lt;/font&gt;" style="rounded=0;whiteSpace=wrap;html=1;" parent="1" vertex="1">
                    <mxGeometry x="40" y="40" width="180" height="100" as="geometry"/>
                </mxCell>
                <mxCell id="4" value="Build Setter structure" style="rounded=0;whiteSpace=wrap;html=1;" parent="1" vertex="1">
                    <mxGeometry x="40" y="960" width="120" height="60" as="geometry"/>
                </mxCell>
                <mxCell id="5" value="run a for loop so we can build every element based on accepted colors" style="rounded=0;whiteSpace=wrap;html=1;" parent="1" vertex="1">
                    <mxGeometry x="180" y="960" width="180" height="60" as="geometry"/>
                </mxCell>
                <mxCell id="7" value="Accepted colors (component)" style="rounded=0;whiteSpace=wrap;html=1;" parent="1" vertex="1">
                    <mxGeometry x="690" y="550" width="120" height="60" as="geometry"/>
                </mxCell>
                <mxCell id="9" value="run loop so we deffer all setters to a extract color method" style="rounded=0;whiteSpace=wrap;html=1;" parent="1" vertex="1">
                    <mxGeometry x="180" y="1040" width="180" height="60" as="geometry"/>
                </mxCell>
                <mxCell id="27" style="edgeStyle=orthogonalEdgeStyle;rounded=0;orthogonalLoop=1;jettySize=auto;html=1;" parent="1" source="11" target="13" edge="1">
                    <mxGeometry relative="1" as="geometry"/>
                </mxCell>
                <mxCell id="28" style="edgeStyle=orthogonalEdgeStyle;rounded=0;orthogonalLoop=1;jettySize=auto;html=1;entryX=0;entryY=0.5;entryDx=0;entryDy=0;" parent="1" source="11" target="14" edge="1">
                    <mxGeometry relative="1" as="geometry"/>
                </mxCell>
                <mxCell id="11" value="&lt;b&gt;Extract color&lt;/b&gt;&lt;br&gt;This builds the initial data" style="rounded=0;whiteSpace=wrap;html=1;shadow=1;strokeColor=#247CF0;fillColor=#000066;" parent="1" vertex="1">
                    <mxGeometry x="40" y="460" width="120" height="60" as="geometry"/>
                </mxCell>
                <mxCell id="13" value="_this.initialFormat -&amp;gt; identify the format the color comes in" style="rounded=0;whiteSpace=wrap;html=1;" parent="1" vertex="1">
                    <mxGeometry x="234" y="460" width="180" height="60" as="geometry"/>
                </mxCell>
                <mxCell id="14" value="_this.initialSanitized -&amp;gt; sanitized value" style="rounded=0;whiteSpace=wrap;html=1;" parent="1" vertex="1">
                    <mxGeometry x="234" y="540" width="180" height="60" as="geometry"/>
                </mxCell>
                <mxCell id="16" value="tell colors (component)" style="rounded=0;whiteSpace=wrap;html=1;" parent="1" vertex="1">
                    <mxGeometry x="690" y="260" width="120" height="60" as="geometry"/>
                </mxCell>
                <mxCell id="17" value="sanitize colors (component)" style="rounded=0;whiteSpace=wrap;html=1;" parent="1" vertex="1">
                    <mxGeometry x="690" y="340" width="120" height="60" as="geometry"/>
                </mxCell>
                <mxCell id="18" value="getter&lt;br&gt;takes this.from converting to this.[setter name]" style="rounded=0;whiteSpace=wrap;html=1;" parent="1" vertex="1">
                    <mxGeometry x="390" y="960" width="180" height="60" as="geometry"/>
                </mxCell>
                <mxCell id="19" value="convertor (component)" style="rounded=0;whiteSpace=wrap;html=1;" parent="1" vertex="1">
                    <mxGeometry x="450" y="1140" width="120" height="60" as="geometry"/>
                </mxCell>
                <mxCell id="20" value="Build Steps (component)" style="rounded=0;whiteSpace=wrap;html=1;" parent="1" vertex="1">
                    <mxGeometry x="450" y="1050" width="120" height="60" as="geometry"/>
                </mxCell>
                <mxCell id="21" value="setter run extract color&amp;nbsp;" style="rounded=0;whiteSpace=wrap;html=1;" parent="1" vertex="1">
                    <mxGeometry x="220" y="1130" width="140" height="60" as="geometry"/>
                </mxCell>
                <mxCell id="35" style="edgeStyle=orthogonalEdgeStyle;rounded=0;orthogonalLoop=1;jettySize=auto;html=1;" parent="1" source="31" edge="1">
                    <mxGeometry relative="1" as="geometry">
                        <mxPoint x="510" y="100" as="targetPoint"/>
                    </mxGeometry>
                </mxCell>
                <mxCell id="31" value="Build Setter structure" style="rounded=0;whiteSpace=wrap;html=1;" parent="1" vertex="1">
                    <mxGeometry x="320" y="70" width="120" height="60" as="geometry"/>
                </mxCell>
                <mxCell id="32" value="Build getter structure" style="rounded=0;whiteSpace=wrap;html=1;" parent="1" vertex="1">
                    <mxGeometry x="320" y="150" width="120" height="60" as="geometry"/>
                </mxCell>
                <mxCell id="36" value="&lt;b&gt;Extract color&lt;/b&gt;&lt;br&gt;This builds the initial data" style="rounded=0;whiteSpace=wrap;html=1;shadow=1;strokeColor=#247CF0;fillColor=#000066;" parent="1" vertex="1">
                    <mxGeometry x="510" y="70" width="120" height="60" as="geometry"/>
                </mxCell>
                <mxCell id="37" value="&lt;b&gt;sanitize&lt;/b&gt;" style="rounded=0;whiteSpace=wrap;html=1;shadow=1;strokeColor=#247CF0;fillColor=#67AB9F;" parent="1" vertex="1">
                    <mxGeometry x="430" y="540" width="80" height="60" as="geometry"/>
                </mxCell>
                <mxCell id="38" value="&lt;b&gt;identify&lt;br&gt;&lt;/b&gt;" style="rounded=0;whiteSpace=wrap;html=1;shadow=1;strokeColor=#247CF0;fillColor=#990000;" parent="1" vertex="1">
                    <mxGeometry x="430" y="460" width="80" height="60" as="geometry"/>
                </mxCell>
                <mxCell id="39" value="&lt;b&gt;identify&lt;br&gt;&lt;/b&gt;" style="rounded=0;whiteSpace=wrap;html=1;shadow=1;strokeColor=#247CF0;fillColor=#990000;" parent="1" vertex="1">
                    <mxGeometry x="40" y="690" width="120" height="60" as="geometry"/>
                </mxCell>
                <mxCell id="40" value="&lt;b&gt;sanitize&lt;/b&gt;" style="rounded=0;whiteSpace=wrap;html=1;shadow=1;strokeColor=#247CF0;fillColor=#67AB9F;" parent="1" vertex="1">
                    <mxGeometry x="40" y="770" width="120" height="60" as="geometry"/>
                </mxCell>
            </root>
        </mxGraphModel>
    </diagram>
    <diagram id="UpAgX8nWU2Kue2DFjqET" name="add new color">
        <mxGraphModel dx="1208" dy="807" grid="1" gridSize="10" guides="1" tooltips="1" connect="1" arrows="1" fold="1" page="1" pageScale="1" pageWidth="827" pageHeight="1169" math="0" shadow="0">
            <root>
                <mxCell id="hKmPcXN35Bw8UIk6Wc76-0"/>
                <mxCell id="hKmPcXN35Bw8UIk6Wc76-1" parent="hKmPcXN35Bw8UIk6Wc76-0"/>
                <mxCell id="hKmPcXN35Bw8UIk6Wc76-7" style="edgeStyle=orthogonalEdgeStyle;rounded=0;orthogonalLoop=1;jettySize=auto;html=1;" parent="hKmPcXN35Bw8UIk6Wc76-1" source="hKmPcXN35Bw8UIk6Wc76-2" target="hKmPcXN35Bw8UIk6Wc76-3" edge="1">
                    <mxGeometry relative="1" as="geometry"/>
                </mxCell>
                <mxCell id="hKmPcXN35Bw8UIk6Wc76-2" value="Accepted color" style="rounded=0;whiteSpace=wrap;html=1;" parent="hKmPcXN35Bw8UIk6Wc76-1" vertex="1">
                    <mxGeometry x="40" y="40" width="120" height="60" as="geometry"/>
                </mxCell>
                <mxCell id="hKmPcXN35Bw8UIk6Wc76-8" style="edgeStyle=orthogonalEdgeStyle;rounded=0;orthogonalLoop=1;jettySize=auto;html=1;" parent="hKmPcXN35Bw8UIk6Wc76-1" source="hKmPcXN35Bw8UIk6Wc76-3" target="hKmPcXN35Bw8UIk6Wc76-4" edge="1">
                    <mxGeometry relative="1" as="geometry"/>
                </mxCell>
                <mxCell id="hKmPcXN35Bw8UIk6Wc76-3" value="identify" style="rounded=0;whiteSpace=wrap;html=1;" parent="hKmPcXN35Bw8UIk6Wc76-1" vertex="1">
                    <mxGeometry x="40" y="200" width="120" height="60" as="geometry"/>
                </mxCell>
                <mxCell id="hKmPcXN35Bw8UIk6Wc76-4" value="sanitize" style="rounded=0;whiteSpace=wrap;html=1;" parent="hKmPcXN35Bw8UIk6Wc76-1" vertex="1">
                    <mxGeometry x="40" y="360" width="120" height="60" as="geometry"/>
                </mxCell>
                <mxCell id="hKmPcXN35Bw8UIk6Wc76-5" value="&lt;h1&gt;&lt;span&gt;Accepted color&lt;/span&gt;&lt;/h1&gt;&lt;h1&gt;&lt;span style=&quot;font-size: 12px ; font-weight: normal&quot;&gt;List of colors that can be used and converted&lt;/span&gt;&lt;br&gt;&lt;/h1&gt;" style="text;html=1;strokeColor=none;fillColor=none;spacing=5;spacingTop=-20;whiteSpace=wrap;overflow=hidden;rounded=0;" parent="hKmPcXN35Bw8UIk6Wc76-1" vertex="1">
                    <mxGeometry x="240" y="40" width="270" height="100" as="geometry"/>
                </mxCell>
                <mxCell id="hKmPcXN35Bw8UIk6Wc76-6" value="&lt;h1&gt;&lt;span&gt;Identify&lt;/span&gt;&lt;/h1&gt;&lt;h1&gt;&lt;span style=&quot;font-size: 12px ; font-weight: normal&quot;&gt;Figure out if that value can a specific format&amp;nbsp;&lt;/span&gt;&lt;br&gt;&lt;/h1&gt;" style="text;html=1;strokeColor=none;fillColor=none;spacing=5;spacingTop=-20;whiteSpace=wrap;overflow=hidden;rounded=0;" parent="hKmPcXN35Bw8UIk6Wc76-1" vertex="1">
                    <mxGeometry x="240" y="200" width="270" height="100" as="geometry"/>
                </mxCell>
                <mxCell id="hKmPcXN35Bw8UIk6Wc76-9" value="&lt;h1&gt;&lt;span&gt;Sanitize&lt;/span&gt;&lt;/h1&gt;&lt;h1&gt;&lt;span style=&quot;font-size: 12px ; font-weight: normal&quot;&gt;build a normalized data from the raw data and based on the identified value&amp;nbsp;&lt;/span&gt;&lt;br&gt;&lt;/h1&gt;" style="text;html=1;strokeColor=none;fillColor=none;spacing=5;spacingTop=-20;whiteSpace=wrap;overflow=hidden;rounded=0;" parent="hKmPcXN35Bw8UIk6Wc76-1" vertex="1">
                    <mxGeometry x="240" y="360" width="270" height="100" as="geometry"/>
                </mxCell>
            </root>
        </mxGraphModel>
    </diagram>
</mxfile>